<svg width="37" height="38" viewBox="0 0 37 38" fill="none" xmlns="http://www.w3.org/2000/svg">
<mask id="mask0_2000_38" style="mask-type:luminance" maskUnits="userSpaceOnUse" x="0" y="0" width="37" height="38">
<path d="M36.4395 0.235352H0.439453V37.1939H36.4395V0.235352Z" fill="white"/>
</mask>
<g mask="url(#mask0_2000_38)">
<path d="M13.6806 15.267C13.472 21.1364 13.5584 27.0289 13.6827 32.5212C13.7564 34.9903 15.4945 36.4482 18.3323 36.4123H18.6293C18.6609 36.4123 18.6904 36.4123 18.722 36.4123C21.5071 36.4123 23.2073 34.9629 23.281 32.5191C23.4074 27.0689 23.4938 21.2059 23.2831 15.267C23.1946 12.5387 20.7445 11.5675 18.4819 11.5654C16.2213 11.5654 13.7733 12.5387 13.6806 15.2649V15.267Z" fill="#011A25"/>
<path d="M4.84478 10.7881H1.86164C1.34338 10.786 0.919922 11.2073 0.919922 11.7277V36.2523C0.919922 36.7705 1.34127 37.194 1.86164 37.194H4.84478C7.77105 37.194 10.1517 34.8134 10.1517 31.8871V16.0971C10.1517 13.1708 7.77105 10.7902 4.84478 10.7902V10.7881Z" fill="#011A25"/>
<path d="M35.4956 0.235352H1.38117C0.860802 0.235352 0.439453 0.6567 0.439453 1.17707V3.34912C0.439453 6.27538 2.82007 8.656 5.74634 8.656H10.3032C10.3222 8.65389 10.3517 8.65389 10.3938 8.65389C10.4191 8.65389 10.4528 8.65389 10.4928 8.65178H10.5055H10.5181C10.5939 8.656 10.6719 8.656 10.7498 8.656C10.7814 8.656 10.8278 8.656 10.8805 8.65389H11.1017C11.1417 8.656 11.1944 8.656 11.2618 8.65178H11.2744H11.2871C11.3482 8.65389 11.4072 8.656 11.4682 8.65389C11.502 8.65389 11.5441 8.65389 11.5989 8.64968H11.6115H11.6241C11.7042 8.65178 11.7653 8.65389 11.8348 8.65389C11.8622 8.65389 11.8917 8.65389 11.9296 8.65178H11.9423H11.9549C12.0307 8.656 12.1066 8.656 12.1866 8.656C12.2225 8.656 12.2646 8.656 12.3152 8.65178H12.3278H12.3404C12.4079 8.65389 12.4795 8.6581 12.549 8.656C12.5954 8.656 12.648 8.656 12.7112 8.65178H12.7239H12.7386C12.7913 8.65389 12.8482 8.65179 12.8987 8.65389C12.9324 8.65389 12.9704 8.65389 13.0125 8.65178H13.0209H13.0357C13.1136 8.65389 13.1852 8.656 13.2611 8.656C13.2969 8.656 13.339 8.656 13.3833 8.65178H13.3959H13.4086C13.476 8.65389 13.5455 8.656 13.6129 8.656C13.6614 8.656 13.7161 8.656 13.7814 8.65178H13.7941H13.8067C13.8594 8.65389 13.9142 8.65179 13.9668 8.65389C14.0048 8.65389 14.0532 8.65389 14.1059 8.64968H14.1185H14.1333C14.2112 8.65178 14.266 8.65179 14.3229 8.65389C14.3566 8.65389 14.3966 8.65389 14.4409 8.65178C14.5399 8.65389 14.6157 8.656 14.6895 8.656C14.7274 8.656 14.7695 8.656 14.8159 8.65178H14.8306H14.8454C14.9128 8.65389 14.976 8.656 15.0434 8.656C15.0813 8.656 15.1234 8.656 15.1698 8.65178H15.1824H15.1951C15.2646 8.65389 15.332 8.656 15.3973 8.656C15.4458 8.656 15.5048 8.656 15.5637 8.65178H15.5764H15.589C15.6417 8.65389 15.6965 8.656 15.747 8.65389C15.785 8.65389 15.825 8.65389 15.8713 8.65178H15.884H15.8966C15.9704 8.656 16.0357 8.656 16.1031 8.656C16.1579 8.656 16.2211 8.656 16.2864 8.65178H16.299H16.3116C16.3622 8.65389 16.4128 8.656 16.4591 8.65389C16.5034 8.65389 16.556 8.65389 16.6108 8.64968H16.6234H16.6361C16.7161 8.65178 16.7688 8.65389 16.8278 8.65389C16.8657 8.65389 16.9057 8.65389 16.95 8.65178H16.9626H16.9753C17.0448 8.656 17.1143 8.6581 17.1775 8.656C17.226 8.656 17.2786 8.656 17.3376 8.65178H17.3503H17.3629C17.4324 8.65389 17.4914 8.656 17.5462 8.656C17.5968 8.656 17.6452 8.656 17.7 8.65178H17.7126H17.7253C17.7948 8.65389 17.8517 8.656 17.9064 8.656C17.9528 8.656 18.0013 8.656 18.0539 8.65178H18.0666H18.0792C18.1487 8.65389 18.2056 8.656 18.2625 8.656C18.3109 8.656 18.3594 8.656 18.4121 8.65178H18.4247H18.4373C18.509 8.65389 18.5637 8.656 18.6227 8.656C18.6796 8.656 18.7386 8.656 18.7976 8.65178H18.964C19.0167 8.65389 19.0694 8.65389 19.1262 8.64968H19.1389H19.1515C19.2316 8.65178 19.2821 8.65389 19.3369 8.65389C19.3833 8.65389 19.4359 8.65389 19.4865 8.64968H19.4991H19.5371C19.5918 8.65178 19.6403 8.65389 19.6887 8.65389C19.733 8.65389 19.7772 8.65389 19.8257 8.65178H19.8383H19.8615C19.9247 8.656 19.9837 8.656 20.0406 8.656C20.0954 8.656 20.1543 8.656 20.2133 8.65178H20.226H20.2386C20.2997 8.65389 20.3587 8.656 20.4114 8.656C20.464 8.656 20.5146 8.656 20.5673 8.65178H20.5799H20.5925C20.6663 8.65389 20.7147 8.6581 20.7611 8.656C20.8053 8.656 20.858 8.656 20.9043 8.65389H20.917H20.9296C20.9928 8.65811 21.0539 8.6581 21.1087 8.6581C21.1866 8.6581 21.2667 8.656 21.351 8.64968H21.4668C21.5279 8.64968 21.5869 8.64968 21.6501 8.64546H21.6628H21.6754C21.7386 8.64757 21.7892 8.64968 21.8355 8.64968C21.8903 8.64968 21.9451 8.64968 22.0041 8.64546H22.0167H22.0293C22.0925 8.64757 22.1431 8.64968 22.1895 8.64968C22.24 8.64968 22.2927 8.64968 22.3475 8.64757H22.3601H22.3727C22.4359 8.65178 22.4907 8.64968 22.5413 8.65178C22.5982 8.65178 22.6572 8.65178 22.7161 8.64757H22.7288H22.7435C22.8088 8.64968 22.8594 8.65178 22.9057 8.65178C22.9626 8.65178 23.0216 8.65178 23.0806 8.64757H23.0932H23.1059C23.1817 8.64968 23.2239 8.65178 23.2681 8.65178C23.325 8.65178 23.3861 8.65178 23.4451 8.64757H23.4577H23.4704C23.5399 8.64968 23.5862 8.65389 23.6262 8.65178C23.6831 8.65178 23.7421 8.65178 23.8011 8.64757H23.8137H23.8538C23.9022 8.64757 23.9423 8.64968 23.9802 8.65178C24.0497 8.65178 24.1192 8.65178 24.1909 8.64757H24.2035H24.2161C24.2562 8.64757 24.292 8.64757 24.3278 8.64757C24.391 8.64757 24.4584 8.64757 24.5237 8.64336H24.5364H24.549C24.6164 8.64546 24.6607 8.64968 24.6986 8.64757C24.7597 8.64757 24.8229 8.64757 24.8882 8.64336H24.9008H24.9409C24.983 8.64336 25.0167 8.64757 25.0504 8.64757C25.1031 8.64757 25.16 8.64757 25.2147 8.64546H25.2274H25.24C25.3053 8.64968 25.358 8.65178 25.4022 8.64968C25.4697 8.64968 25.535 8.64968 25.6066 8.64546H25.6192H25.6571C25.7056 8.64546 25.7435 8.64968 25.7751 8.64968C25.8383 8.64968 25.8994 8.64968 25.9647 8.64546H25.9774H26.0258C26.0701 8.64546 26.1038 8.64968 26.1312 8.64757C26.2028 8.64757 26.2786 8.64757 26.3503 8.64336H26.3629H26.3755C26.4177 8.64546 26.4577 8.64757 26.4851 8.64546C26.5399 8.64546 26.5989 8.64546 26.6557 8.64336L26.8854 8.63493V8.64968L31.1326 8.65389C34.0588 8.65389 36.4395 6.27327 36.4395 3.34701V1.17707C36.4395 0.658807 36.0181 0.235352 35.4977 0.235352H35.4956Z" fill="#011A25"/>
<path d="M35.1055 10.7861H32.1223C29.196 10.7861 26.8154 13.1668 26.8154 16.093V31.883C26.8154 34.8093 29.196 37.1899 32.1223 37.1899H35.1055C35.6237 37.1899 36.0472 36.7686 36.0472 36.2482V11.7278C36.0472 11.2096 35.6258 10.7861 35.1055 10.7861Z" fill="#011A25"/>
</g>
</svg>
