<svg width="41" height="47" viewBox="0 0 41 47" fill="none" xmlns="http://www.w3.org/2000/svg">
<path d="M19.6364 1.04294L7.03042 21.7112C6.93155 21.8732 6.70186 21.8913 6.57922 21.7462C5.46945 20.4332 1.33495 14.8473 6.45097 9.75601C11.1194 5.11023 17.0656 1.79789 19.2694 0.653073C19.5194 0.523188 19.7827 0.803031 19.6364 1.04294Z" fill="#007C23"/>
<path d="M18.9389 46.0449C19.1905 46.2204 19.5005 45.9212 19.3319 45.6656C16.5162 41.3983 7.15632 27.1997 5.86338 25.0683C4.58809 22.966 2.0798 19.4722 1.87056 16.4831C1.84967 16.1847 1.43556 16.1241 1.33139 16.4047C1.16339 16.8573 0.984523 17.3974 0.817824 18.0145C-1.28662 25.8042 1.76968 34.07 8.40732 38.6995L18.9389 46.045V46.0449Z" fill="#007C23"/>
<path d="M20.6709 45.6768L33.2769 25.0086C33.3758 24.8465 33.6055 24.8284 33.7281 24.9735C34.8379 26.2865 38.9724 31.8724 33.8564 36.9637C29.188 41.6095 23.2417 44.9218 21.038 46.0666C20.788 46.1965 20.5246 45.9167 20.6709 45.6768Z" fill="#007C23"/>
<path d="M21.3824 0.67266C21.1308 0.497195 20.8208 0.796431 20.9894 1.05197C23.8051 5.31933 33.165 19.5179 34.4579 21.6493C35.7332 23.7516 38.2415 27.2454 38.4507 30.2345C38.4716 30.5329 38.8857 30.5935 38.9899 30.3129C39.1579 29.8603 39.3368 29.3201 39.5035 28.7031C41.6079 20.9134 38.5516 12.6475 31.914 8.01804L21.3824 0.67266Z" fill="#007C23"/>
</svg>
