<svg width="958" height="300" viewBox="0 0 958 300" fill="none" xmlns="http://www.w3.org/2000/svg">
<g clip-path="url(#clip0_2000_57)">
<path d="M862.359 262.975C812.387 262.975 770.664 243.153 765.124 195.803C764.952 194.337 766.008 193.011 767.47 192.824L818.741 186.26C820.346 186.055 821.77 187.285 821.913 188.899C823.969 212.485 840.654 223.141 863.642 223.141C888.019 223.141 900.418 214.146 900.418 198.298C900.418 184.164 884.17 179.024 850.385 170.886C809.329 161.035 771.695 148.185 771.695 104.068C771.695 56.9524 813.178 38.5347 859.365 38.5347C905.562 38.5347 945.159 53.8184 951.832 100.612C952.037 102.056 951.041 103.403 949.605 103.648L900.035 112.115C898.416 112.392 896.926 111.184 896.754 109.549C894.462 87.728 880.662 77.9403 860.221 77.9403C842.687 77.9403 828.146 84.3651 828.146 99.3565C828.146 113.919 843.542 119.059 872.195 125.484C910.254 134.05 957.724 144.33 957.724 195.3C957.724 246.699 912.392 262.975 862.359 262.975Z" fill="#0080BC"/>
<path d="M731.635 58.9277C748.741 76.0605 750.88 99.1899 750.88 127.031V258.355C750.88 259.873 749.651 261.104 748.135 261.104H693.328C691.812 261.104 690.583 259.873 690.583 258.355V132.17C690.583 112.468 688.872 102.188 679.464 93.1934C671.766 85.912 664.496 84.6268 651.666 84.6268C633.277 84.6268 611.894 97.0481 611.894 141.165V258.355C611.894 259.873 610.665 261.104 609.149 261.104H554.769C553.253 261.104 552.024 259.873 552.024 258.355V46.6854C552.024 45.1672 553.253 43.9363 554.769 43.9363H608.721C610.237 43.9363 611.466 45.1672 611.466 46.6854V69.9938C611.466 71.3106 613.419 71.7271 614.032 70.5616C626.064 47.6681 648.934 38.7964 674.76 38.7964C702.13 38.7964 717.95 45.2215 731.635 58.9277Z" fill="#0080BC"/>
<path d="M504.644 66.0767C525.408 87.2235 535.867 119.364 536.747 160.066C536.779 161.562 535.595 162.803 534.105 162.85L383.125 167.63C381.6 167.678 380.4 168.975 380.505 170.502C382.847 204.587 400.429 221.506 431.649 220.518C457.991 219.684 471.287 207.738 475.426 186.853C475.701 185.47 476.933 184.467 478.337 184.546L530.92 187.52C532.615 187.616 533.814 189.223 533.4 190.87C521.712 237.141 486.909 261.193 432.986 262.9C399.647 263.956 372.807 254.092 354.3 237.108C333.15 217.637 321.999 189.706 320.862 153.745C319.784 119.497 328.267 90.0878 348.577 69.3036C366.804 50.2995 392.138 39.6409 425.479 38.5855C459.245 37.5164 486.086 47.38 504.644 66.0767ZM426.788 80.1119C409.263 80.6669 397.03 86.1965 389.246 97.1563C384.019 104.349 380.971 113.251 379.777 123.548C379.589 125.176 380.91 126.561 382.544 126.509L471.778 123.684C473.396 123.633 474.622 122.192 474.37 120.589C472.496 108.688 468.718 98.731 461.377 91.4445C452.984 83.1393 442.177 79.6249 426.788 80.1119Z" fill="#0080BC"/>
<path fill-rule="evenodd" clip-rule="evenodd" d="M135.83 4.94403C134.732 3.2745 136.75 1.31946 138.388 2.46584L206.949 50.4559C250.161 80.7023 270.058 134.706 256.358 185.599C255.272 189.631 254.108 193.16 253.014 196.117C252.336 197.95 249.64 197.555 249.504 195.605C248.348 179.034 236.416 160.089 227.756 146.339C226.21 143.884 224.768 141.595 223.511 139.514C215.093 125.589 154.16 32.8242 135.83 4.94403ZM45.0485 139.919L127.114 4.88505C128.067 3.31761 126.352 1.48928 124.725 2.33787C110.378 9.8174 71.6677 31.4582 41.2761 61.8109C7.97043 95.0739 34.8865 131.569 42.111 140.147C42.9096 141.095 44.4048 140.977 45.0485 139.919ZM125.086 296.441C126.183 298.11 124.165 300.066 122.528 298.919L53.9661 250.929C10.7545 220.683 -9.14227 166.679 4.55784 115.786C5.64304 111.754 6.80749 108.225 7.90118 105.268C8.57934 103.435 11.2753 103.83 11.4112 105.78C12.5671 122.351 24.4992 141.296 33.1596 155.046C34.7055 157.501 36.1471 159.79 37.4049 161.871C45.8221 175.796 106.755 268.561 125.086 296.441ZM133.808 296.486L215.874 161.452C216.517 160.394 218.013 160.275 218.811 161.223C226.036 169.801 252.952 206.297 219.646 239.56C189.254 269.912 150.544 291.553 136.197 299.033C134.57 299.881 132.855 298.053 133.808 296.486Z" fill="#0080BC"/>
</g>
<defs>
<clipPath id="clip0_2000_57">
<rect width="957.447" height="300" fill="white" transform="translate(0.276367)"/>
</clipPath>
</defs>
</svg>
