<svg width="38" height="40" viewBox="0 0 38 40" fill="none" xmlns="http://www.w3.org/2000/svg">
<path d="M32.7026 0C35.0459 0 36.9359 1.895 37.0476 4.125V40L32.5859 36.2117L30.1359 33.9817L27.4626 31.6517L28.5792 35.3267H5.18255C2.84589 35.3267 0.949219 33.5517 0.949219 31.2V4.13333C0.949219 1.90333 2.84922 0.005 5.19089 0.005H32.6909L32.7026 0ZM22.5059 9.47167H22.4559L22.1192 9.805C25.5742 10.805 27.2459 12.3667 27.2459 12.3667C25.0192 11.2533 23.0126 10.6967 21.0059 10.4717C19.5559 10.2467 18.1059 10.365 16.8809 10.4717H16.5476C15.7642 10.4717 14.0976 10.805 11.8643 11.6967C11.0859 12.035 10.6393 12.2567 10.6393 12.2567C10.6393 12.2567 12.3093 10.5867 15.9893 9.695L15.7642 9.47C15.7642 9.47 12.9776 9.36333 9.96917 11.5867C9.96917 11.5867 6.96089 16.8267 6.96089 23.2867C6.96089 23.2867 8.62755 26.1867 13.1993 26.2967C13.1993 26.2967 13.8659 25.4083 14.5409 24.6267C11.9742 23.8467 10.9742 22.2867 10.9742 22.2867C10.9742 22.2867 11.1976 22.3967 11.5326 22.62H11.6326C11.6826 22.62 11.7059 22.645 11.7326 22.67V22.68C11.7592 22.7067 11.7826 22.73 11.8326 22.73C12.3826 22.9567 12.9326 23.18 13.3826 23.3967C14.1593 23.7333 15.1576 24.0683 16.3826 24.29C17.9326 24.515 19.7092 24.6233 21.7326 24.29C22.7326 24.065 23.7326 23.845 24.7326 23.3983C25.3826 23.065 26.1826 22.7317 27.0609 22.17C27.0609 22.17 26.0609 23.73 23.3859 24.51C23.9359 25.2867 24.7109 26.1767 24.7109 26.1767C29.2842 26.0767 31.0609 23.1767 31.1609 23.3C31.1609 16.85 28.1359 11.6 28.1359 11.6C25.4109 9.57667 22.8609 9.5 22.4109 9.5L22.5042 9.46667L22.5059 9.47167ZM22.7859 16.8267C23.9576 16.8267 24.9026 17.8267 24.9026 19.0517C24.9026 20.285 23.9526 21.285 22.7859 21.285C21.6192 21.285 20.6692 20.285 20.6692 19.0617C20.6726 17.8283 21.6243 16.8317 22.7859 16.8317V16.8267ZM15.2142 16.8267C16.3809 16.8267 17.3242 17.8267 17.3242 19.0517C17.3242 20.285 16.3743 21.285 15.2076 21.285C14.0409 21.285 13.0909 20.285 13.0909 19.0617C13.0909 17.8283 14.0409 16.8317 15.2076 16.8317L15.2142 16.8267Z" fill="#093C52"/>
</svg>
