<svg width="41" height="44" viewBox="0 0 41 44" fill="none" xmlns="http://www.w3.org/2000/svg">
<g clip-path="url(#clip0_2001_96)">
<path fill-rule="evenodd" clip-rule="evenodd" d="M37.1007 36.0855C37.1007 38.1311 35.4628 39.7564 33.4025 39.7564H7.51053C5.45018 39.7564 3.81228 38.1311 3.81228 36.0862V7.91358C3.81228 5.86797 5.45018 4.2427 7.51053 4.2427H23.8909V11.5845C23.8909 14.3115 26.1632 16.5669 28.9105 16.5669H37.1007V36.0855ZM27.1084 6.17674L34.7716 13.3592H28.9709C27.9604 13.3592 27.1084 12.5143 27.1084 11.5108V6.17674ZM27.5877 2.3206C26.6825 1.42235 25.4586 0.947266 24.1281 0.947266H7.4186C3.58632 0.947266 0.5 4.01042 0.5 7.81323V36.1866C0.5 39.9894 3.58632 43.0525 7.41789 43.0525H33.4418C37.2733 43.0525 40.3596 39.9894 40.3596 36.1866V16.4231C40.3596 15.0497 39.7744 13.729 38.7632 12.7781L27.5877 2.3206Z" fill="#0080BC"/>
<path fill-rule="evenodd" clip-rule="evenodd" d="M10.5275 22.2812H30.3338C31.2433 22.2812 31.9394 23.0111 31.9394 23.9655C31.9394 24.9198 31.2433 25.6497 30.3338 25.6497H10.5275C9.61802 25.6497 8.92188 24.9198 8.92188 23.9655C8.92188 23.0111 9.61802 22.2812 10.5275 22.2812Z" fill="#0080BC"/>
<path fill-rule="evenodd" clip-rule="evenodd" d="M10.5275 29.5791H30.3338C31.2433 29.5791 31.9394 30.3089 31.9394 31.2633C31.9394 32.2177 31.2433 32.9475 30.3338 32.9475H10.5275C9.61802 32.9475 8.92188 32.2177 8.92188 31.2633C8.92188 30.3089 9.61802 29.5791 10.5275 29.5791Z" fill="#0080BC"/>
</g>
<defs>
<clipPath id="clip0_2001_96">
<rect width="40" height="42.1053" fill="white" transform="translate(0.5 0.947266)"/>
</clipPath>
</defs>
</svg>
