<svg width="44" height="41" viewBox="0 0 44 41" fill="none" xmlns="http://www.w3.org/2000/svg">
<path fill-rule="evenodd" clip-rule="evenodd" d="M23.3225 0.851147C22.9197 0.621034 22.4637 0.5 21.9998 0.5C21.5359 0.5 21.08 0.621034 20.6771 0.851147L2.01004 11.518C1.49982 11.8099 1.10034 12.2622 0.873701 12.8046C0.647065 13.3469 0.605979 13.949 0.75683 14.5171C0.907682 15.0853 1.24202 15.5876 1.70786 15.9461C2.17369 16.3046 2.74493 16.4992 3.33274 16.4995V35.1666C2.62548 35.1666 1.94719 35.4475 1.44708 35.9476C0.946973 36.4477 0.666016 37.126 0.666016 37.8333C0.666016 38.5405 0.946973 39.2188 1.44708 39.7189C1.94719 40.219 2.62548 40.5 3.33274 40.5H40.6669C41.3741 40.5 42.0524 40.219 42.5525 39.7189C43.0526 39.2188 43.3336 38.5405 43.3336 37.8333C43.3336 37.126 43.0526 36.4477 42.5525 35.9476C42.0524 35.4475 41.3741 35.1666 40.6669 35.1666V16.4995C41.2547 16.4992 41.8259 16.3046 42.2918 15.9461C42.7576 15.5876 43.0919 15.0853 43.2428 14.5171C43.3936 13.949 43.3525 13.3469 43.1259 12.8046C42.8993 12.2622 42.4998 11.8099 41.9896 11.518L23.3225 0.851147ZM11.3329 19.1662C10.6257 19.1662 9.94736 19.4472 9.44725 19.9473C8.94715 20.4474 8.66619 21.1257 8.66619 21.8329V29.8331C8.66619 30.5404 8.94715 31.2187 9.44725 31.7188C9.94736 32.2189 10.6257 32.4998 11.3329 32.4998C12.0402 32.4998 12.7185 32.2189 13.2186 31.7188C13.7187 31.2187 13.9996 30.5404 13.9996 29.8331V21.8329C13.9996 21.1257 13.7187 20.4474 13.2186 19.9473C12.7185 19.4472 12.0402 19.1662 11.3329 19.1662ZM19.3331 21.8329C19.3331 21.1257 19.614 20.4474 20.1141 19.9473C20.6143 19.4472 21.2925 19.1662 21.9998 19.1662C22.7071 19.1662 23.3854 19.4472 23.8855 19.9473C24.3856 20.4474 24.6665 21.1257 24.6665 21.8329V29.8331C24.6665 30.5404 24.3856 31.2187 23.8855 31.7188C23.3854 32.2189 22.7071 32.4998 21.9998 32.4998C21.2925 32.4998 20.6143 32.2189 20.1141 31.7188C19.614 31.2187 19.3331 30.5404 19.3331 29.8331V21.8329ZM32.6667 19.1662C31.9594 19.1662 31.2812 19.4472 30.781 19.9473C30.2809 20.4474 30 21.1257 30 21.8329V29.8331C30 30.5404 30.2809 31.2187 30.781 31.7188C31.2812 32.2189 31.9594 32.4998 32.6667 32.4998C33.374 32.4998 34.0523 32.2189 34.5524 31.7188C35.0525 31.2187 35.3334 30.5404 35.3334 29.8331V21.8329C35.3334 21.1257 35.0525 20.4474 34.5524 19.9473C34.0523 19.4472 33.374 19.1662 32.6667 19.1662Z" fill="#0080BC"/>
</svg>
