<svg width="30" height="40" viewBox="0 0 30 40" fill="none" xmlns="http://www.w3.org/2000/svg">
<path fill-rule="evenodd" clip-rule="evenodd" d="M24.4544 22.5188V16.1843C24.4544 15.7694 24.2288 15.3861 23.8672 15.1814L3.66016 3.81505V2.65362C3.66016 2.21268 4.13756 1.93602 4.52237 2.15216L25.768 14.1065C26.1327 14.3111 26.3554 14.6944 26.3554 15.1094V22.6053C26.3554 23.0461 25.878 23.323 25.4932 23.1067L24.4516 22.5218L24.4544 22.5188ZM19.0931 25.6083L17.1893 24.5362V37.3003L18.2309 37.8854C18.6158 38.1015 19.0931 37.8248 19.0931 37.3839V25.6054V25.6083Z" fill="#674D49"/>
<path fill-rule="evenodd" clip-rule="evenodd" d="M28.0942 20.4445V14.1101C28.0942 13.6951 27.8685 13.3118 27.5068 13.1071L7.30273 1.74077V0.576474C7.30273 0.135535 7.78014 -0.141133 8.16495 0.0750125L29.4107 12.0293C29.7752 12.2339 29.9979 12.6172 29.9979 13.0322V20.5282C29.9979 20.969 29.5206 21.2457 29.1358 21.0296L28.0942 20.4445ZM22.4087 27.4303L20.8291 26.5484V36.8197L21.8417 37.3847C22.2265 37.6008 22.7038 37.3213 22.7038 36.8831V27.9319C22.7038 27.7243 22.591 27.5313 22.4087 27.4303Z" fill="#674D49"/>
<path d="M22.7196 17.1455V24.6415C22.7196 25.0824 22.2423 25.3591 21.8573 25.143L15.8856 21.7826C15.6917 21.673 15.4545 21.8114 15.4545 22.0333V39.4229C15.4545 39.8639 14.9771 40.1405 14.5923 39.9244L7.87975 36.1462C7.51519 35.9416 7.29241 35.5583 7.29241 35.1432V17.2867C7.29241 17.0793 7.17957 16.8861 6.99729 16.7853L0.608829 13.1915C0.24427 12.9869 0.0214844 12.6036 0.0214844 12.1886V4.69269C0.0214844 4.25175 0.498883 3.97507 0.883695 4.19123L22.1293 16.1455C22.494 16.3501 22.7167 16.7334 22.7167 17.1485L22.7196 17.1455Z" fill="#674D49"/>
</svg>
